<svg width="56" height="25" viewBox="0 0 56 25" fill="none" xmlns="http://www.w3.org/2000/svg">
<path fill-rule="evenodd" clip-rule="evenodd" d="M0 7.67347V11.5113H11.2261C12.5309 11.5113 14.198 10.3047 14.198 8.30876C14.198 7.506 14.5051 6.98236 13.5615 5.92052L12.1256 4.21915C11.3028 3.45159 12.2239 3.45159 12.915 3.45159H17.6548V11.5113H21.4137V3.45159H26.4799V0H10.0747C8.07879 0 7.10281 1.91647 7.15772 2.9143C7.21293 3.91213 7.39648 5.16753 9.05508 6.67564C10.568 8.05088 8.30603 7.67347 8.07879 7.67347H0ZM34.7917 0H28.7277L25.3283 11.5116H29.1114L29.7252 9.8997H33.7165L34.309 11.5116H38.0148L34.7917 0ZM30.5698 7.13618L31.8747 2.9143L33.1031 7.13618H30.5698ZM49.9897 7.67347C48.5313 7.67347 48.5313 7.13618 48.5313 7.13618C49.7809 7.13618 50.8889 5.31558 50.8889 3.45159C50.8889 1.58761 49.0686 0 47.6096 0H39.4513V11.5116H43.5968V7.67378C43.5968 7.67378 45.3619 9.74619 46.2829 10.5905C47.2043 11.4348 47.2808 11.5116 48.531 11.5116H55.0383V7.67378C55.0389 7.67347 51.448 7.67347 49.9897 7.67347ZM46.2283 4.98701H43.5974V2.9143H46.2283C47.4346 2.9143 47.6433 4.98701 46.2283 4.98701ZM0 12.9696H4.24099L5.31558 16.808L6.3134 12.9696H10.7656L11.9169 16.808L13.0685 12.9696H16.7528L13.3753 24.4839H9.99799L8.51809 19.0337L6.8507 24.4839H3.39668L0 12.9696ZM25.4566 13.0361H19.3926L15.9935 24.5473H19.7763L20.3904 22.9358H24.382L24.9745 24.5473H28.6806L25.4566 13.0361ZM21.235 20.172L22.5399 15.9501L23.768 20.172H21.235ZM50.0661 16.4243C49.3759 16.4243 48.6232 16.505 49.4463 17.2722L50.8825 18.9739C51.8257 20.0357 51.8106 20.4784 51.8106 21.2817C51.8106 23.2774 49.8362 24.4839 48.5313 24.4839L39.4614 24.5449C38.2117 24.5449 38.1353 24.4685 37.2139 23.6241C36.2931 22.7798 34.5274 20.7071 34.5274 20.7071V24.5449H30.3826V13.0336H38.5409C39.9993 13.0336 41.8202 14.6216 41.8202 16.4852C41.8202 18.3495 40.7122 20.1698 39.462 20.1698C39.462 20.1698 40.0117 20.7226 40.9328 20.7226C41.8541 20.7226 45.4007 20.7262 45.4007 20.7262C45.6276 20.7262 47.8893 21.1036 46.3767 19.7284C44.7181 18.2203 44.5345 16.9655 44.4793 15.9677C44.4241 14.9698 45.2869 12.9699 47.282 12.9699H55.0395V16.4246L50.0661 16.4243ZM37.1587 18.0204H34.5271V15.9476H37.1587C38.3652 15.9476 38.5737 18.0204 37.1587 18.0204Z" fill="black"/>
</svg>
