<svg width="322" height="144" viewBox="0 0 322 144" fill="none" xmlns="http://www.w3.org/2000/svg">
<path fill-rule="evenodd" clip-rule="evenodd" d="M0 44.8297V67.2507H65.5847C73.2078 67.2507 82.9473 60.2019 82.9473 48.5411C82.9473 43.8513 84.7409 40.7921 79.2287 34.5887L70.8399 24.649C66.0331 20.1648 71.4142 20.1648 75.4517 20.1648H103.142V67.2507H125.102V20.1648H154.7V0H58.8584C47.1976 0 41.4958 11.1963 41.8166 17.0258C42.1392 22.8553 43.2115 30.1896 52.9013 39.0002C61.7403 47.0346 48.5252 44.8297 47.1976 44.8297H0ZM203.259 0H167.832L147.972 67.2525H170.074L173.659 57.8357H196.977L200.439 67.2525H222.089L203.259 0ZM178.594 41.6908L186.217 17.0258L193.394 41.6908H178.594ZM292.048 44.8297C283.528 44.8297 283.528 41.6908 283.528 41.6908C290.828 41.6908 297.301 31.0545 297.301 20.1648C297.301 9.27505 286.667 0 278.143 0H230.481V67.2525H254.7V44.8315C254.7 44.8315 265.012 56.9388 270.393 61.8715C275.775 66.8041 276.222 67.2525 283.526 67.2525H321.543V44.8315C321.546 44.8297 300.568 44.8297 292.048 44.8297ZM270.074 29.135H254.703V17.0258H270.074C277.121 17.0258 278.34 29.135 270.074 29.135ZM0 75.7707H24.7766L31.0545 98.1953L36.884 75.7707H62.8942L69.6205 98.1953L76.3486 75.7707H97.8728L78.1405 143.039H58.4099L49.7641 111.198L40.0229 143.039H19.844L0 75.7707ZM148.722 76.1589H113.295L93.4364 143.41H115.537L119.124 133.995H142.444L145.905 143.41H167.557L148.722 76.1589ZM124.058 117.848L131.682 93.183L138.856 117.848H124.058ZM292.495 95.9532C288.462 95.9532 284.065 96.4247 288.874 100.907L297.264 110.849C302.775 117.052 302.686 119.638 302.686 124.331C302.686 135.99 291.151 143.039 283.528 143.039L230.54 143.395C223.239 143.395 222.793 142.949 217.41 138.016C212.03 133.084 201.715 120.974 201.715 120.974V143.395H177.5V76.1447H225.162C233.682 76.1447 244.32 85.4216 244.32 96.3095C244.32 107.201 237.847 117.835 230.543 117.835C230.543 117.835 233.755 121.065 239.136 121.065C244.519 121.065 265.238 121.086 265.238 121.086C266.564 121.086 279.777 123.291 270.94 115.257C261.25 106.446 260.178 99.1152 259.856 93.2858C259.533 87.4563 264.574 75.7725 276.229 75.7725H321.55V95.955L292.495 95.9532ZM217.087 105.278H201.713V93.1688H217.087C224.136 93.1688 225.354 105.278 217.087 105.278Z" fill="white"/>
</svg>
